HIERARCHY
ROOT Hips
{
	OFFSET 0.000000 83.214638 0.000000
	CHANNELS 6 Xposition Yposition Zposition Xrotation Yrotation Zrotation
	JOINT Pelvis
	{
		OFFSET 0.000000 0.000000 0.000000
		CHANNELS 3 Xrotation Yrotation Zrotation
		JOINT LeftUpLeg
		{
			OFFSET 8.479700 -4.795502 -0.379100
			CHANNELS 3 Xrotation Yrotation Zrotation
			JOINT LeftLeg
			{
				OFFSET 0.024144 -32.555107 0.112900
				CHANNELS 3 Xrotation Yrotation Zrotation
				JOINT LeftFoot
				{
					OFFSET -0.024144 -32.638630 -3.012600
					CHANNELS 3 Xrotation Yrotation Zrotation
					JOINT LeftToeBase
					{
						OFFSET 0.970200 -13.225400 11.864200
						CHANNELS 3 Xrotation Yrotation Zrotation
						End Site
						{
							OFFSET 0.000000 12.319262 0.000000
						}
					}
					JOINT LFootTongue
					{
						OFFSET 1.142400 -1.059800 6.665200
						CHANNELS 3 Xrotation Yrotation Zrotation
						End Site
						{
							OFFSET 0.000000 12.319262 0.000000
						}
					}
				}
				JOINT LeftPantLeg
				{
					OFFSET 0.918482 -16.533964 -2.284700
					CHANNELS 3 Xrotation Yrotation Zrotation
					End Site
					{
						OFFSET 0.350399 24.744368 0.000000
					}
				}
			}
		}
		JOINT RightUpLeg
		{
			OFFSET -8.479700 -4.795502 -0.379100
			CHANNELS 3 Xrotation Yrotation Zrotation
			JOINT RightLeg
			{
				OFFSET -0.023144 -32.555092 0.112900
				CHANNELS 3 Xrotation Yrotation Zrotation
				JOINT RightFoot
				{
					OFFSET 0.023144 -32.638641 -3.012700
					CHANNELS 3 Xrotation Yrotation Zrotation
					JOINT RightToeBase
					{
						OFFSET -0.970200 -13.225400 11.864200
						CHANNELS 3 Xrotation Yrotation Zrotation
						End Site
						{
							OFFSET 0.000000 12.319244 0.000000
						}
					}
					JOINT RFootTongue
					{
						OFFSET -1.142200 -1.059800 6.665200
						CHANNELS 3 Xrotation Yrotation Zrotation
						End Site
						{
							OFFSET 0.000000 12.319243 0.000000
						}
					}
				}
				JOINT RightPantLeg
				{
					OFFSET -0.919482 -16.533978 -2.284800
					CHANNELS 3 Xrotation Yrotation Zrotation
					End Site
					{
						OFFSET -0.350400 24.744419 0.000000
					}
				}
			}
		}
	}
	JOINT Spine
	{
		OFFSET 0.000000 7.722000 1.166200
		CHANNELS 3 Xrotation Yrotation Zrotation
		JOINT Spine1
		{
			OFFSET 0.000000 12.024101 0.248800
			CHANNELS 3 Xrotation Yrotation Zrotation
			JOINT Spine2
			{
				OFFSET 0.000000 11.502998 -0.491200
				CHANNELS 3 Xrotation Yrotation Zrotation
				JOINT Neck
				{
					OFFSET 0.000000 18.430702 -3.123100
					CHANNELS 3 Xrotation Yrotation Zrotation
					JOINT Head
					{
						OFFSET 0.000000 9.051102 1.034000
						CHANNELS 3 Xrotation Yrotation Zrotation
						JOINT HairB
						{
							OFFSET 0.208400 24.786102 24.822300
							CHANNELS 3 Xrotation Yrotation Zrotation
							End Site
							{
								OFFSET 0.000000 32.263779 0.000000
							}
						}
						JOINT HairA
						{
							OFFSET -7.081100 24.428299 23.196600
							CHANNELS 3 Xrotation Yrotation Zrotation
							End Site
							{
								OFFSET 0.000000 32.263779 0.000000
							}
						}
						JOINT Hat
						{
							OFFSET 16.728800 15.048294 -15.439601
							CHANNELS 3 Xrotation Yrotation Zrotation
							End Site
							{
								OFFSET 0.000000 32.263779 0.000000
							}
						}
					}
				}
				JOINT LeftShoulder
				{
					OFFSET 6.197800 13.665199 -4.064700
					CHANNELS 3 Xrotation Yrotation Zrotation
					JOINT LeftArm
					{
						OFFSET 7.778100 -0.187103 -1.709300
						CHANNELS 3 Xrotation Yrotation Zrotation
						JOINT LeftForeArm
						{
							OFFSET 22.049376 0.000000 0.000000
							CHANNELS 3 Xrotation Yrotation Zrotation
							JOINT LeftHand
							{
								OFFSET 23.009392 0.000000 0.000000
								CHANNELS 3 Xrotation Yrotation Zrotation
								JOINT LeftHandThumb1
								{
									OFFSET 3.507191 -2.063065 3.133727
									CHANNELS 3 Xrotation Yrotation Zrotation
									JOINT LeftHandThumb2
									{
										OFFSET 3.101337 -1.790558 1.790558
										CHANNELS 3 Xrotation Yrotation Zrotation
										JOINT LeftHandThumb3
										{
											OFFSET 3.058640 -1.765907 1.765906
											CHANNELS 3 Xrotation Yrotation Zrotation
											End Site
											{
												OFFSET -0.415260 3.926476 -0.049563
											}
										}
									}
								}
								JOINT LeftHandIndex1
								{
									OFFSET 11.334419 -0.901459 3.706815
									CHANNELS 3 Xrotation Yrotation Zrotation
									JOINT LeftHandIndex2
									{
										OFFSET 3.283112 0.000000 0.000000
										CHANNELS 3 Xrotation Yrotation Zrotation
										JOINT LeftHandIndex3
										{
											OFFSET 3.323853 0.000000 0.000000
											CHANNELS 3 Xrotation Yrotation Zrotation
											End Site
											{
												OFFSET -1.135597 3.097809 0.402452
											}
										}
									}
								}
								JOINT LeftHandMiddle1
								{
									OFFSET 11.335861 0.000000 0.000000
									CHANNELS 3 Xrotation Yrotation Zrotation
									JOINT LeftHandMiddle2
									{
										OFFSET 3.410492 0.000000 0.000000
										CHANNELS 3 Xrotation Yrotation Zrotation
										JOINT LeftHandMiddle3
										{
											OFFSET 3.312172 0.000000 0.000000
											CHANNELS 3 Xrotation Yrotation Zrotation
											End Site
											{
												OFFSET -1.150200 3.080154 0.400270
											}
										}
									}
								}
								JOINT LeftHandRing1
								{
									OFFSET 11.514786 -0.013176 -3.003090
									CHANNELS 3 Xrotation Yrotation Zrotation
									JOINT LeftHandRing2
									{
										OFFSET 3.053307 0.000000 0.000000
										CHANNELS 3 Xrotation Yrotation Zrotation
										JOINT LeftHandRing3
										{
											OFFSET 3.295807 0.000000 0.000000
											CHANNELS 3 Xrotation Yrotation Zrotation
											End Site
											{
												OFFSET -1.281006 3.013344 0.375733
											}
										}
									}
								}
								JOINT LeftHandPinky1
								{
									OFFSET 10.518692 -0.960396 -5.730441
									CHANNELS 3 Xrotation Yrotation Zrotation
									JOINT LeftHandPinky2
									{
										OFFSET 2.861649 0.000000 0.000000
										CHANNELS 3 Xrotation Yrotation Zrotation
										JOINT LeftHandPinky3
										{
											OFFSET 2.863380 0.000000 0.000000
											CHANNELS 3 Xrotation Yrotation Zrotation
											End Site
											{
												OFFSET -0.843597 2.711159 0.369971
											}
										}
									}
								}
							}
							JOINT LSleeve
							{
								OFFSET 6.676277 -0.344902 -1.011730
								CHANNELS 3 Xrotation Yrotation Zrotation
								End Site
								{
									OFFSET 0.000000 14.885353 0.000000
								}
							}
						}
					}
				}
				JOINT RightShoulder
				{
					OFFSET -6.197800 13.665199 -4.064700
					CHANNELS 3 Xrotation Yrotation Zrotation
					JOINT RightArm
					{
						OFFSET -7.778100 -0.187103 -1.709300
						CHANNELS 3 Xrotation Yrotation Zrotation
						JOINT RightForeArm
						{
							OFFSET -22.049376 0.000000 0.000000
							CHANNELS 3 Xrotation Yrotation Zrotation
							JOINT RightHand
							{
								OFFSET -23.009392 0.000000 0.000000
								CHANNELS 3 Xrotation Yrotation Zrotation
								JOINT RightHandThumb1
								{
									OFFSET -3.507191 -2.063065 3.133727
									CHANNELS 3 Xrotation Yrotation Zrotation
									JOINT RightHandThumb2
									{
										OFFSET -3.101337 -1.790558 1.790558
										CHANNELS 3 Xrotation Yrotation Zrotation
										JOINT RightHandThumb3
										{
											OFFSET -3.058640 -1.765907 1.765906
											CHANNELS 3 Xrotation Yrotation Zrotation
											End Site
											{
												OFFSET 0.415260 3.926476 -0.049563
											}
										}
									}
								}
								JOINT RightHandIndex1
								{
									OFFSET -11.334419 -0.901459 3.706815
									CHANNELS 3 Xrotation Yrotation Zrotation
									JOINT RightHandIndex2
									{
										OFFSET -3.283112 0.000000 0.000000
										CHANNELS 3 Xrotation Yrotation Zrotation
										JOINT RightHandIndex3
										{
											OFFSET -3.323853 0.000000 0.000000
											CHANNELS 3 Xrotation Yrotation Zrotation
											End Site
											{
												OFFSET 1.135597 3.097809 0.402452
											}
										}
									}
								}
								JOINT RightHandMiddle1
								{
									OFFSET -11.335861 0.000000 0.000000
									CHANNELS 3 Xrotation Yrotation Zrotation
									JOINT RightHandMiddle2
									{
										OFFSET -3.410492 0.000000 0.000000
										CHANNELS 3 Xrotation Yrotation Zrotation
										JOINT RightHandMiddle3
										{
											OFFSET -3.312172 0.000000 0.000000
											CHANNELS 3 Xrotation Yrotation Zrotation
											End Site
											{
												OFFSET 1.150200 3.080154 0.400270
											}
										}
									}
								}
								JOINT RightHandRing1
								{
									OFFSET -11.514786 -0.013176 -3.003090
									CHANNELS 3 Xrotation Yrotation Zrotation
									JOINT RightHandRing2
									{
										OFFSET -3.053307 0.000000 0.000000
										CHANNELS 3 Xrotation Yrotation Zrotation
										JOINT RightHandRing3
										{
											OFFSET -3.295807 0.000000 0.000000
											CHANNELS 3 Xrotation Yrotation Zrotation
											End Site
											{
												OFFSET 1.281006 3.013344 0.375733
											}
										}
									}
								}
								JOINT RightHandPinky1
								{
									OFFSET -10.518692 -0.960396 -5.730441
									CHANNELS 3 Xrotation Yrotation Zrotation
									JOINT RightHandPinky2
									{
										OFFSET -2.861649 0.000000 0.000000
										CHANNELS 3 Xrotation Yrotation Zrotation
										JOINT RightHandPinky3
										{
											OFFSET -2.863380 0.000000 0.000000
											CHANNELS 3 Xrotation Yrotation Zrotation
											End Site
											{
												OFFSET 0.843597 2.711159 0.369971
											}
										}
									}
								}
							}
							JOINT RSleeve
							{
								OFFSET -6.676277 -0.344902 -1.011730
								CHANNELS 3 Xrotation Yrotation Zrotation
								End Site
								{
									OFFSET 0.000000 14.885353 0.000000
								}
							}
						}
					}
				}
				JOINT Backpack
				{
					OFFSET 0.000000 -2.471497 36.677502
					CHANNELS 3 Xrotation Yrotation Zrotation
					End Site
					{
						OFFSET 0.000000 20.427315 0.000000
					}
				}
				JOINT Hood
				{
					OFFSET 0.000000 18.754097 -10.431000
					CHANNELS 3 Xrotation Yrotation Zrotation
					JOINT Hood1
					{
						OFFSET 0.000000 -5.011002 -7.685901
						CHANNELS 3 Xrotation Yrotation Zrotation
						End Site
						{
							OFFSET 0.000000 9.175140 0.000000
						}
					}
				}
				JOINT LHoodieString
				{
					OFFSET 5.250500 16.397697 3.089900
					CHANNELS 3 Xrotation Yrotation Zrotation
					JOINT LHoodieString1
					{
						OFFSET 0.257700 -6.364304 3.694600
						CHANNELS 3 Xrotation Yrotation Zrotation
						JOINT LHoodieString2
						{
							OFFSET 0.000000 -9.643799 2.679100
							CHANNELS 3 Xrotation Yrotation Zrotation
							End Site
							{
								OFFSET 0.000000 10.009018 0.000000
							}
						}
					}
				}
				JOINT RHoodieString
				{
					OFFSET -5.250500 16.397697 3.089900
					CHANNELS 3 Xrotation Yrotation Zrotation
					JOINT RHoodieString1
					{
						OFFSET -0.257700 -6.364304 3.694600
						CHANNELS 3 Xrotation Yrotation Zrotation
						JOINT RHoodieString2
						{
							OFFSET 0.000000 -9.643799 2.679100
							CHANNELS 3 Xrotation Yrotation Zrotation
							End Site
							{
								OFFSET 0.000000 10.009018 0.000000
							}
						}
					}
				}
			}
			JOINT LBackpack_Strap
			{
				OFFSET 15.223200 -7.719803 -6.610900
				CHANNELS 3 Xrotation Yrotation Zrotation
				End Site
				{
					OFFSET 0.000000 16.040596 0.000000
				}
			}
			JOINT RBackpack_Strap
			{
				OFFSET -15.223000 -7.719803 -6.610900
				CHANNELS 3 Xrotation Yrotation Zrotation
				End Site
				{
					OFFSET 0.000000 16.040596 0.000000
				}
			}
		}
	}
	JOINT BoyFacialAnim_Joint
	{
		OFFSET 1.000000 -82.208099 -1.550900
		CHANNELS 3 Xrotation Yrotation Zrotation
		End Site
		{
			OFFSET 0.000000 30.012791 0.000000
		}
	}
}
MOTION
Frames: 4
Frame Time: 0.033333
1.567474 80.978943 -4.783011 -4.029278 -2.181248 -2.110155 -0.000000 -0.000000 -0.000000 -10.633772 8.033707 5.525916 26.736917 7.301319 2.081573 -11.701415 6.436200 -5.027510 0.000000 0.000002 0.000000 0.000000 0.000002 0.000000 0.000000 -0.000001 -0.000000 -9.343793 -12.199938 -3.467280 22.855358 2.393206 -1.643713 -9.258441 -3.248547 3.716262 -0.000000 0.000000 0.000000 -0.000000 0.000000 0.000000 0.000000 0.000001 0.000000 1.031753 -1.929704 1.512375 2.775703 -0.294069 0.519628 2.776570 -0.302097 0.509089 10.970188 -0.541719 -0.661827 1.792282 -3.657557 1.784557 -0.000001 -0.000001 0.000000 -0.000001 -0.000001 0.000000 -0.000001 -0.000001 0.000000 1.125167 -0.597678 -7.186440 16.418532 -57.610262 -54.966531 0.000007 -5.335762 0.000011 -3.414386 -9.556265 -3.837865 12.990850 26.240878 -4.033715 1.207951 -0.209720 -1.050988 -0.000000 -0.000001 -0.000001 0.762201 4.869475 -9.937214 0.756254 3.142226 -27.058390 -0.000001 0.000000 -0.000002 0.810959 4.748984 -11.058034 0.366383 2.220224 -18.739066 0.000001 0.000000 0.000000 0.863383 4.604065 -12.497463 0.072667 0.999717 -8.313961 -0.000004 -0.000002 -0.000001 1.845562 8.431335 -13.235222 -0.018099 -4.056668 -0.491014 0.000001 0.000002 -0.000002 0.000000 -0.000001 -0.000000 3.249292 6.223595 6.013264 2.711527 43.936377 64.543887 -0.000011 8.642835 0.000021 -0.538724 10.455836 -4.790570 18.809501 -19.166435 16.610928 1.571721 0.187008 1.723078 -0.000001 0.000000 0.000001 -0.028196 -0.522482 10.985748 1.610782 -4.454999 39.740448 -0.000000 -0.000001 0.000002 0.169970 -1.548348 14.716566 1.437713 -4.238783 37.457253 -0.000000 0.000000 -0.000000 0.563828 -2.792778 19.393984 1.233927 -3.959358 34.607032 -0.000002 -0.000002 -0.000003 0.993276 -3.747485 23.153409 1.080426 -3.727658 32.317733 0.000000 0.000002 0.000004 0.000002 -0.000001 0.000000 -0.000000 -0.000000 0.000000 -0.000000 -0.000000 0.000000 -0.000000 -0.000000 0.000000 -0.000000 -0.000000 0.000000 -0.000000 -0.000000 0.000000 -0.000000 -0.000000 0.000000 -0.000000 -0.000000 0.000000 -0.000000 -0.000000 0.000000 -0.000000 -0.000000 0.000000 -0.000000 0.000000 -0.000000 -0.000000 0.000000 -0.000000 -0.000000 -0.000000 -0.000000 
1.555430 80.982567 -4.798676 -4.146417 -2.218257 -2.111477 -0.000000 0.000000 0.000000 -10.515019 8.166231 5.560744 26.704942 7.317362 2.091395 -11.684599 6.341229 -5.044753 0.000000 0.000002 0.000000 0.000000 0.000002 0.000000 -0.000000 -0.000000 -0.000000 -9.230040 -12.170485 -3.439908 22.843568 2.334321 -1.664863 -9.242507 -3.229012 3.720967 -0.000000 -0.000002 -0.000000 -0.000000 -0.000002 -0.000000 -0.000000 0.000001 -0.000000 1.162082 -1.888813 1.516991 2.809947 -0.287221 0.542330 2.810886 -0.294640 0.531734 10.852056 -0.524899 -0.523622 1.735007 -3.487420 1.587731 0.000000 -0.000000 -0.000000 0.000000 -0.000000 -0.000000 0.000000 -0.000000 -0.000000 1.127888 -0.597943 -7.231881 16.124282 -57.386935 -55.193119 -0.000007 -5.405716 -0.000000 -3.136209 -9.369462 -3.768114 12.984671 26.563739 -3.917773 1.208163 -0.209151 -1.050830 -0.000001 0.000001 -0.000001 0.759993 4.856246 -9.940578 0.767025 3.163224 -27.254396 -0.000003 -0.000001 -0.000000 0.807439 4.733831 -11.050915 0.371662 2.235713 -18.874823 0.000003 -0.000001 -0.000000 0.859277 4.590787 -12.478426 0.073672 1.006657 -8.372184 0.000001 -0.000001 -0.000000 1.839132 8.420019 -13.206251 -0.018116 -4.056682 -0.491029 -0.000001 -0.000000 0.000001 0.000001 -0.000000 0.000001 3.258114 6.264747 5.987176 2.663787 44.085019 64.541886 -0.000003 8.615152 0.000018 -0.769425 10.443515 -4.795728 19.300694 -19.450060 17.122839 1.571727 0.187010 1.723080 0.000001 0.000000 0.000001 -0.029132 -0.526838 11.107381 1.603537 -4.446297 39.647086 -0.000002 0.000000 -0.000002 0.169731 -1.555393 15.180000 1.431416 -4.230619 37.372487 0.000002 0.000001 0.000002 0.574315 -2.801056 20.292343 1.227573 -3.950170 34.515319 0.000002 0.000002 0.000001 1.021693 -3.756450 24.415503 1.072312 -3.714818 32.192434 -0.000003 -0.000000 0.000000 0.000000 -0.000000 -0.000000 0.000000 -0.000000 -0.000000 0.000000 -0.000000 -0.000000 0.000000 -0.000000 -0.000000 0.000000 -0.000000 -0.000000 0.000000 -0.000000 -0.000000 -0.000000 -0.000000 0.000000 0.000000 -0.000000 -0.000000 0.000000 -0.000000 -0.000000 -0.000000 -0.000000 0.000000 -0.000000 0.000000 -0.000000 -0.000000 0.000000 -0.000000 -0.000000 0.000000 0.000000 
1.542198 80.985481 -4.818191 -4.280453 -2.262430 -2.100461 0.000000 0.000000 0.000000 -10.376002 8.313996 5.570847 26.661717 7.343201 2.125990 -11.659147 6.248652 -5.073861 -0.000000 0.000000 -0.000000 -0.000000 0.000000 0.000000 -0.000000 0.000000 -0.000000 -9.114423 -12.121445 -3.427530 22.850548 2.282619 -1.685838 -9.234403 -3.196824 3.726465 -0.000000 0.000000 0.000000 -0.000000 0.000000 0.000000 0.000000 0.000000 0.000000 1.257467 -1.865613 1.513341 2.838771 -0.283427 0.557911 2.839772 -0.290367 0.547232 10.758250 -0.529574 -0.460483 1.731348 -3.487027 1.545532 0.000000 0.000001 -0.000000 0.000000 0.000001 -0.000000 0.000000 0.000001 -0.000000 1.132220 -0.611714 -7.268009 16.043221 -57.313463 -55.225269 0.000004 -5.427152 -0.000000 -3.028483 -9.355489 -3.734745 12.978908 26.893301 -3.797984 1.208222 -0.209003 -1.050826 -0.000001 -0.000001 0.000001 0.767300 4.894929 -9.943870 0.774928 3.178463 -27.397024 0.000000 -0.000002 -0.000004 0.813725 4.760263 -11.065823 0.375547 2.246944 -18.973439 0.000003 -0.000001 0.000000 0.864303 4.605188 -12.509056 0.074399 1.011597 -8.413595 -0.000001 0.000000 -0.000000 1.845620 8.424207 -13.249834 -0.018106 -4.056671 -0.491017 -0.000000 0.000000 -0.000002 -0.000002 -0.000000 0.000001 3.266807 6.302004 5.968206 2.619754 44.106370 64.562684 -0.000004 8.682523 0.000010 -0.714902 10.392314 -4.801003 19.930403 -19.614690 17.875727 1.571725 0.187009 1.723079 0.000002 0.000001 0.000001 -0.036230 -0.497696 11.202304 1.602962 -4.445591 39.639816 0.000001 0.000001 0.000004 0.160060 -1.528998 15.600528 1.426046 -4.223580 37.299263 0.000003 -0.000003 0.000001 0.569639 -2.774949 21.115337 1.217574 -3.935640 34.369570 0.000002 0.000001 0.000001 1.027000 -3.726883 25.562786 1.058780 -3.693274 31.982774 -0.000002 0.000002 0.000002 -0.000000 -0.000001 0.000000 -0.000000 -0.000000 0.000000 -0.000000 -0.000000 0.000000 -0.000000 -0.000000 0.000000 -0.000000 -0.000000 0.000000 -0.000000 -0.000000 0.000000 -0.000000 -0.000000 0.000000 -0.000000 -0.000000 0.000000 -0.000000 -0.000000 0.000000 -0.000000 -0.000000 0.000000 -0.000000 0.000000 -0.000000 -0.000000 0.000000 -0.000000 0.000000 0.000000 0.000000 
1.536556 80.982353 -4.838547 -4.379285 -2.278720 -2.075459 0.000000 0.000000 0.000000 -10.287315 8.410487 5.539487 26.646832 7.348715 2.178582 -11.641519 6.207359 -5.098026 -0.000000 0.000000 -0.000000 -0.000000 0.000000 -0.000000 -0.000000 -0.000000 -0.000000 -9.063352 -12.089011 -3.454627 22.908408 2.278763 -1.691520 -9.252380 -3.178739 3.725840 -0.000000 0.000000 -0.000000 -0.000000 0.000000 -0.000000 -0.000000 -0.000001 -0.000000 1.324221 -1.861908 1.504130 2.862546 -0.282941 0.565322 2.863590 -0.289550 0.554537 10.684304 -0.549416 -0.462839 1.771095 -3.612714 1.627963 0.000000 -0.000001 -0.000000 0.000000 -0.000001 -0.000000 0.000000 -0.000001 -0.000000 1.137621 -0.635863 -7.296372 16.100938 -57.335593 -55.131825 0.000005 -5.416462 0.000003 -3.012968 -9.464778 -3.726741 12.952026 27.216277 -3.649634 1.208173 -0.209130 -1.050864 -0.000002 0.000001 -0.000000 0.776790 4.949763 -9.935648 0.780123 3.188428 -27.490596 -0.000003 0.000000 -0.000004 0.823357 4.801965 -11.084272 0.378061 2.254336 -19.038375 0.000000 0.000000 0.000000 0.873322 4.631719 -12.561432 0.074919 1.014943 -8.441642 0.000001 -0.000001 0.000001 1.858945 8.437367 -13.330193 -0.018106 -4.056685 -0.491034 0.000005 0.000000 -0.000000 -0.000000 -0.000000 -0.000000 3.276387 6.339017 5.955661 2.592467 44.037706 64.587150 0.000005 8.829900 -0.000005 -0.446243 10.311156 -4.801170 20.586685 -19.697236 18.694591 1.571724 0.187008 1.723079 -0.000001 0.000001 0.000000 -0.050530 -0.427989 11.239307 1.609366 -4.453295 39.722294 -0.000004 0.000000 0.000004 0.137826 -1.459090 15.937391 1.422605 -4.219062 37.252545 0.000000 -0.000000 -0.000002 0.543476 -2.702082 21.816888 1.204848 -3.917005 34.183826 0.000003 -0.000001 0.000000 1.000597 -3.646415 26.548250 1.040448 -3.663839 31.697248 -0.000004 -0.000001 0.000002 0.000001 -0.000001 0.000000 0.000000 -0.000000 0.000000 0.000000 -0.000000 0.000000 0.000000 -0.000000 0.000000 0.000000 -0.000000 0.000000 0.000000 -0.000000 -0.000000 0.000000 0.000000 -0.000000 0.000000 -0.000000 0.000000 0.000000 -0.000000 -0.000000 0.000000 0.000000 -0.000000 -0.000000 -0.000000 -0.000000 -0.000000 -0.000000 -0.000000 0.000000 0.000000 0.000000 
